<svg xmlns="http://www.w3.org/2000/svg" aria-hidden="true" style="position:absolute;width:0;height:0;overflow:hidden">
<defs>

<!-- ANTENNA -->
<symbol id="icon-antenna" viewBox="0 0 64 64">
<g fill="none" stroke="#2E2F42" stroke-width="2" stroke-linecap="round" stroke-linejoin="round">
<path d="M32 36L16 60H48L32 36Z"/>
<path d="M32 28V36"/>
<circle cx="32" cy="20" r="6"/>
<path d="M20 4C24 9 27 13 32 13C37 13 40 9 44 4"/>
</g>
</symbol>

<!-- CLOCK -->
<symbol id="icon-clock" viewBox="0 0 64 64">
<g fill="none" stroke="#2E2F42" stroke-width="2" stroke-linecap="round" stroke-linejoin="round">
<circle cx="32" cy="32" r="22"/>
<path d="M32 18V32L42 38"/>
</g>
</symbol>

<!-- DIAGRAM -->
<symbol id="icon-diagram" viewBox="0 0 64 64">
<g fill="none" stroke="#2E2F42" stroke-width="2" stroke-linecap="round" stroke-linejoin="round">
<rect x="6" y="6" width="52" height="40" rx="4" ry="4"/>
<path d="M12 38L24 26L34 32L52 14"/>
<circle cx="24" cy="26" r="2"/>
<circle cx="34" cy="32" r="2"/>
<circle cx="52" cy="14" r="2"/>
</g>
</symbol>

<!-- ASTRONAUT -->
<symbol id="icon-astronaut" viewBox="0 0 64 64">
<g fill="none" stroke="#2E2F42" stroke-width="2" stroke-linecap="round" stroke-linejoin="round">
<circle cx="32" cy="18" r="10"/>
<path d="M18 54C18 42 26 36 32 36C38 36 46 42 46 54H18Z"/>
<path d="M26 18H38"/>
<path d="M32 12V24"/>
<circle cx="50" cy="16" r="2"/>
<circle cx="54" cy="22" r="2"/>
</g>
</symbol>

</defs>
</svg>