<svg xmlns="http://www.w3.org/2000/svg" aria-hidden="true" style="display:none">
  <!-- Strategy – antenna -->
  <symbol id="icon-antenna" viewBox="0 0 64 64">
    <rect x="8" y="8" width="48" height="48" rx="12" ry="12" fill="none"/>
    <circle cx="32" cy="22" r="6" class="feature-icon-accent"/>
    <line x1="32" y1="28" x2="22" y2="46" />
    <line x1="32" y1="28" x2="42" y2="46" />
    <line x1="18" y1="46" x2="46" y2="46" />
  </symbol>

  <!-- Punctuality – clock -->
  <symbol id="icon-clock" viewBox="0 0 64 64">
    <rect x="8" y="8" width="48" height="48" rx="12" ry="12" fill="none"/>
    <circle cx="32" cy="32" r="14" />
    <line x1="32" y1="32" x2="32" y2="22" />
    <line x1="32" y1="32" x2="40" y2="36" />
    <circle cx="32" cy="32" r="2" class="feature-icon-accent"/>
  </symbol>

  <!-- Diligence – diagram -->
  <symbol id="icon-diagram" viewBox="0 0 64 64">
    <rect x="8" y="8" width="48" height="48" rx="12" ry="12" fill="none"/>
    <polyline points="18,40 26,30 34,34 44,22" />
    <polyline points="40,22 44,22 44,26" />
    <rect x="18" y="36" width="6" height="8" class="feature-icon-accent"/>
    <rect x="28" y="32" width="6" height="12" class="feature-icon-accent"/>
    <rect x="38" y="28" width="6" height="16" class="feature-icon-accent"/>
  </symbol>

  <!-- Technologies – astronaut -->
  <symbol id="icon-astronaut" viewBox="0 0 64 64">
    <rect x="8" y="8" width="48" height="48" rx="12" ry="12" fill="none"/>
    <circle cx="26" cy="24" r="7" />
    <path d="M18 40c1.5-5 4.5-8 8-8s6.5 3 8 8" />
    <circle cx="42" cy="20" r="3" class="feature-icon-accent"/>
    <path d="M42 24v3" />
    <path d="M39 20h-3" />
    <path d="M45 20h3" />
  </symbol>
</svg>