<svg xmlns="http://www.w3.org/2000/svg" style="position:absolute;width:0;height:0;overflow:hidden">
  <defs>

    <!-- ANTENNA -->
    <symbol id="icon-antenna" viewBox="0 0 64 64">
      <g fill="none" stroke="#2E2F42" stroke-width="2" stroke-linecap="round" stroke-linejoin="round">
        <rect x="4" y="4" width="56" height="40" rx="6" ry="6" fill="#F4F4FD" stroke="#8E8F99" />
        <path d="M26 34L18 46" />
        <path d="M38 20L26 34" />
        <circle cx="24" cy="36" r="2" fill="#4D5AE5" stroke="#4D5AE5" />
        <path d="M38 20L44 12" />
        <circle cx="44" cy="12" r="2" fill="#4D5AE5" stroke="#4D5AE5" />
        <path d="M30 18H22" />
        <path d="M30 22H24" />
      </g>
    </symbol>

    <!-- CLOCK -->
    <symbol id="icon-clock" viewBox="0 0 64 64">
      <g fill="none" stroke="#2E2F42" stroke-width="2" stroke-linecap="round" stroke-linejoin="round">
        <rect x="4" y="4" width="56" height="40" rx="6" ry="6" fill="#F4F4FD" stroke="#8E8F99" />
        <circle cx="32" cy="24" r="12" />
        <path d="M32 18V24" />
        <path d="M32 24L38 28" />
        <circle cx="50" cy="14" r="2" fill="#4D5AE5" stroke="#4D5AE5" />
        <circle cx="14" cy="14" r="2" fill="#4D5AE5" stroke="#4D5AE5" />
      </g>
    </symbol>

    <!-- DIAGRAM -->
    <symbol id="icon-diagram" viewBox="0 0 64 64">
      <g fill="none" stroke="#2E2F42" stroke-width="2" stroke-linecap="round" stroke-linejoin="round">
        <rect x="4" y="4" width="56" height="40" rx="6" ry="6" fill="#F4F4FD" stroke="#8E8F99" />
        <path d="M14 34L24 26L32 30L46 18" />
        <circle cx="14" cy="34" r="2" fill="#4D5AE5" stroke="#4D5AE5" />
        <circle cx="24" cy="26" r="2" fill="#4D5AE5" stroke="#4D5AE5" />
        <circle cx="32" cy="30" r="2" fill="#4D5AE5" stroke="#4D5AE5" />
        <circle cx="46" cy="18" r="2" fill="#4D5AE5" stroke="#4D5AE5" />
        <rect x="14" y="32" width="4" height="6" />
        <rect x="24" y="28" width="4" height="10" />
        <rect x="32" y="30" width="4" height="8" />
        <rect x="42" y="22" width="4" height="16" />
      </g>
    </symbol>

    <!-- ASTRONAUT -->
    <symbol id="icon-astronaut" viewBox="0 0 64 64">
      <g fill="none" stroke="#2E2F42" stroke-width="2" stroke-linecap="round" stroke-linejoin="round">
        <rect x="4" y="4" width="56" height="40" rx="6" ry="6" fill="#F4F4FD" stroke="#8E8F99" />
        <circle cx="26" cy="20" r="8" />
        <path d="M20 34L16 44" />
        <path d="M32 34L30 44" />
        <path d="M24 28L32 30" />
        <path d="M20 28L14 30" />
        <circle cx="26" cy="20" r="3" />
        <circle cx="44" cy="16" r="2" stroke="#4D5AE5" />
        <circle cx="48" cy="22" r="2" stroke="#4D5AE5" />
        <path d="M44 22L46 20" stroke="#4D5AE5" />
      </g>
    </symbol>

    <!-- INSTAGRAM -->
    <symbol id="icon-instagram" viewBox="0 0 24 24">
      <g fill="none" stroke="#F4F4FD" stroke-width="2" stroke-linecap="round" stroke-linejoin="round">
        <rect x="3" y="3" width="18" height="18" rx="5" ry="5" />
        <circle cx="12" cy="12" r="4" />
        <circle cx="17" cy="7" r="1" fill="#F4F4FD" stroke="#F4F4FD" />
      </g>
    </symbol>

    <!-- TWITTER -->
    <symbol id="icon-twitter" viewBox="0 0 24 24">
      <path
        d="M20.5 7.2c-.7.3-1.3.4-2 .5.7-.4 1.2-1 1.4-1.8-.7.4-1.5.7-2.3.8A3.3 3.3 0 0 0 13 6c-1.8 0-3.2 1.5-3.2 3.3 0 .3 0 .6.1.9-2.6-.1-4.9-1.4-6.4-3.4-.3.6-.5 1.1-.5 1.8 0 1.2.6 2.3 1.6 3-.5 0-1-.2-1.5-.4v.1c0 1.7 1.2 3.1 2.8 3.4-.3.1-.6.1-.9.1-.2 0-.4 0-.6-.1.4 1.3 1.7 2.3 3.2 2.3A6.7 6.7 0 0 1 4 18.4 9.4 9.4 0 0 0 9.1 20c6.2 0 9.6-5.3 9.6-9.8v-.4c.7-.4 1.3-1 1.8-1.6Z"
        fill="#F4F4FD"
      />
    </symbol>

    <!-- FACEBOOK -->
    <symbol id="icon-facebook" viewBox="0 0 24 24">
      <path
        d="M13.5 20v-6h2.3l.4-2.8h-2.7v-1.8c0-.8.2-1.3 1.3-1.3h1.4V5.1C15.8 5 15 5 14.1 5c-2.2 0-3.7 1.3-3.7 3.8v2.3H8.1V14h2.3v6h3.1Z"
        fill="#F4F4FD"
      />
    </symbol>

    <!-- LINKEDIN -->
    <symbol id="icon-linkedin" viewBox="0 0 24 24">
      <g fill="#F4F4FD">
        <rect x="3" y="9" width="4" height="12" />
        <circle cx="5" cy="5" r="2" />
        <path
          d="M11 9h3v1.7c.4-.8 1.4-1.9 3.3-1.9 3.1 0 3.7 2 3.7 4.7V21h-4v-6.1c0-1.4-.1-3.1-2-3.1-2 0-2.3 1.5-2.3 3V21h-4V9Z"
        />
      </g>
    </symbol>

  </defs>
</svg>